<svg id="Camada_1" data-name="Camada 1" xmlns="http://www.w3.org/2000/svg" xmlns:xlink="http://www.w3.org/1999/xlink" viewBox="0 0 497 686"><defs><style>.cls-1{fill:none;}.cls-2{clip-path:url(#clip-path);}.cls-3{fill:#242a59;}.cls-4{fill:#fff;}.cls-5{fill:#10609a;}.cls-6{fill:#1b6eb5;}.cls-7{fill:#082f43;}.cls-8{fill:#0f425e;}</style><clipPath id="clip-path"><path class="cls-1" d="M389.94,384.46H346.05L324.3,338.3s-2.77-6.09-8.95-6.09c-6.64,0-9.31,6-9.31,6l-13.2,56.5a1.08,1.08,0,0,1-2.06.14l-2.09-5.61a4.49,4.49,0,0,0-4.19-2.91H223.1a5.44,5.44,0,0,0-4.86,3L215.41,395a1.32,1.32,0,0,1-2.47-.25L198,338.3s-1.66-5.66-10.32-5.66c-7.75,0-10.51,5.66-10.51,5.66L151,386.3H120.54V148.89h269.4Z"/></clipPath></defs><title>logo1</title><g class="cls-2"><rect class="cls-3" x="132.61" y="206.15" width="241.47" height="264.31" rx="38.88"/><rect class="cls-4" x="148.68" y="223.53" width="209.7" height="229.54" rx="38.88"/></g><g class="cls-2"><rect class="cls-5" x="132.61" y="206.15" width="241.47" height="264.31" rx="38.88"/><rect class="cls-4" x="148.68" y="223.53" width="209.7" height="229.54" rx="38.88"/><path class="cls-5" d="M195.6,179.41H313a26.74,26.74,0,0,1,26.74,26.74v0a0,0,0,0,1,0,0H168.86a0,0,0,0,1,0,0v0A26.74,26.74,0,0,1,195.6,179.41Z"/><path class="cls-6" d="M311.32,317.49c1.58-13.65-10.23-29.53-24-29.53s-33.59,29.51-33.59,29.51h0S233.9,288,220.17,288s-26.38,15.88-24.8,29.53S220.15,361,220.15,361l0,0,33.59,43.49L287.35,361h0S309.75,331.15,311.32,317.49Z"/><path class="cls-7" d="M253.76,409.4l-36-46.56c-1-1.26-23.75-30.69-25.4-45-.9-7.75,2.17-16.4,8.19-23.16,5.51-6.18,12.65-9.72,19.59-9.72,12.34,0,27.52,19,33.59,27.3,6.06-8.32,21.25-27.3,33.59-27.3,6.8,0,13.47,3.28,18.79,9.24,6,6.77,9.09,15.61,8.16,23.64h0c-1.64,14.29-23.62,43.72-24.55,45ZM220.17,291c-5.23,0-10.74,2.81-15.11,7.71-4.83,5.42-7.4,12.5-6.71,18.48,1.21,10.51,17.86,33.87,24.17,42l31.24,40.44L285,359.17c6.07-8.09,22.16-31.49,23.37-42,.72-6.26-1.84-13.52-6.68-19-4.1-4.6-9.32-7.23-14.31-7.23-8.84,0-23.77,17.29-31.1,28.19l-2.49,3.69-2.49-3.69C243.93,308.25,229,291,220.17,291Z"/><path class="cls-4" d="M247.48,347.64l-3.84,11.72a1.72,1.72,0,0,1-1.67,1.1h0a1.7,1.7,0,0,1-1.65-1.17l-6.08-22.73-6.28,10.55a1.76,1.76,0,0,1-1.54.82H203.76v-2.59h21.88l7.46-12.54a1.8,1.8,0,0,1,1.76-.81,1.65,1.65,0,0,1,1.47,1.17l5.76,21.53,2.8-8.54a1.73,1.73,0,0,1,1.67-1.1h15.18a1.69,1.69,0,0,1,1.68,1.16l2.24,8,5.48-21a1.69,1.69,0,0,1,1.53-1.18,1.79,1.79,0,0,1,1.75.9l6.18,12.1h24.28v2.59H279.81a1.76,1.76,0,0,1-1.59-.9l-5-9.81-5.82,22.27a1.7,1.7,0,0,1-1.68,1.18h0a1.69,1.69,0,0,1-1.68-1.16l-3.24-11.58m-1.58-.81Zm-33.08-.92h0Z"/></g><path class="cls-8" d="M211.67,453.07h-.15a5.86,5.86,0,0,1-5.55-4.52l-20.52-87.67-21.2,40.7a5.83,5.83,0,0,1-5.19,3.15H82.69v-10h73.86l25.19-48.36a5.85,5.85,0,0,1,10.89,1.37l19.45,83.07,9.46-32.94a5.89,5.89,0,0,1,5.63-4.24H278.4a5.83,5.83,0,0,1,5.68,4.47L291.63,429,310.14,348a5.86,5.86,0,0,1,11.05-1.09l20.87,46.7H424v10H339.38a5.85,5.85,0,0,1-5.35-3.46l-16.91-37.85L297.47,448.2a5.82,5.82,0,0,1-5.66,4.55h0a5.84,5.84,0,0,1-5.69-4.46l-10.93-44.67H230.28l-13,45.21A5.84,5.84,0,0,1,211.67,453.07Zm62.71-52.6v0ZM155.4,397v0Z"/><polygon class="cls-5" points="429.33 506.81 418.73 557.66 239.5 557.66 264.19 506.81 429.33 506.81"/><polygon class="cls-5" points="88.88 484.46 278.01 484.68 241.57 557.66 73.94 557.66 88.88 484.46"/><path class="cls-4" d="M135.1,553.32H113.72L118,533.25H104.61l-4.27,20.07H79l13.57-64.13h21.38l-7.63,36.06h13.39l7.62-36.06h21.38Z"/><path class="cls-5" d="M138.7,557.77H108.22l4.28-20.08h-4.29l-4.27,20.08H73.47l15.45-73h30.47l-7.62,36.06h4.29l7.62-36.06h30.48Zm-19.48-8.9h12.27l11.69-55.23H130.9l-7.43,35.16h0Zm-34.77,0H96.73l4.09-19.17h0l7.62-36.06H96.13Z"/><path class="cls-4" d="M176.54,533.25H145.77l1.67-8h30.77Z"/><polygon class="cls-5" points="180.15 537.69 140.29 537.69 143.83 520.8 183.69 520.8 180.15 537.69"/><path class="cls-4" d="M240.08,553.32H218.7l-1.39-24.63-11.9,24.63H184l-3.81-64.13H201.6l2.79,48.15,12-24.73L215,489.19h21.38l2.79,48.15,23.24-48.15H271Z"/><path class="cls-5" d="M242.87,557.77H214.5l-.66-11.66-5.64,11.66H179.84l-4.34-73h30.3l2,35.28,4-8.31-1.61-27h30.3l2,35.21,17-35.21h18.52Zm-20-8.9h12.45l-3.2-55.23H219.71l1,17.68,0,0Zm-34.69,0H200.6l-3.2-55.23H184.94Z"/><path class="cls-4" d="M295.31,553.32h-14l2.8-13.18H275.3l-2.81,13.18h-14L266,517.81a8.32,8.32,0,0,1,2.87-4.79,7.83,7.83,0,0,1,5.12-1.8h23.68a5.3,5.3,0,0,1,4.42,1.8,5.45,5.45,0,0,1,.77,4.79Zm-15-36.86-3.91,18.43h8.79l3.91-18.43Z"/><path class="cls-5" d="M298.75,557.56H276l2.81-13.18h-.12l-2.81,13.18H253.23l8.6-40.68a12.47,12.47,0,0,1,4.31-7.14A12,12,0,0,1,274,507h23.68A9.09,9.09,0,0,1,307,518.71Zm-12.24-8.47h5.37l6.8-32.21a2.19,2.19,0,0,0,.06-1.23,2,2,0,0,0-1.11-.2h-4L289.3,535.9h0Zm-22.83,0h5.38l2.12-10h0l5-23.68H274a3.61,3.61,0,0,0-2.44.84,4.19,4.19,0,0,0-1.41,2.42Zm17.94-18.43h.13l2.11-10h-.13Z"/><path class="cls-4" d="M344.19,516.46h-10.5l-7.81,36.86h-14l7.81-36.86h-10.5l1.1-5.24h35Z"/><path class="cls-5" d="M329.32,557.56h-22.7l7.81-36.86H304L306.82,507H350.5l-2.87,13.72h-10.5Zm-12.24-8.47h5.37l7.13-33.64H324.2Z"/><path class="cls-4" d="M349,553.32a5.3,5.3,0,0,1-4.42-1.8,5.45,5.45,0,0,1-.77-4.79l6.11-28.92a8.31,8.31,0,0,1,2.86-4.79,7.87,7.87,0,0,1,5.13-1.8h23.25l-1.1,5.24h-15.8l-7.08,31.61h16.17l-1.1,5.25Z"/><path class="cls-5" d="M375.7,557.56H349a9.1,9.1,0,0,1-9.33-11.73l6.11-29a12.53,12.53,0,0,1,4.32-7.14,12,12,0,0,1,7.81-2.76h28.47l-2.88,13.72H367.66l-5.18,23.14h16.09Zm-21.63-38.85L348,547.66a2.33,2.33,0,0,0-.06,1.22c.05.07.39.21,1.11.21h3.61l7.53-33.64h-2.23a3.61,3.61,0,0,0-2.44.84A4.16,4.16,0,0,0,354.07,518.71Z"/><path class="cls-4" d="M415.1,553.32h-14l2.81-13.18h-8.79l-2.8,13.18h-14l8.91-42.1h14l-5,23.67H405l5-23.67h14Z"/><path class="cls-5" d="M418.53,557.56h-22.7l2.81-13.18h-.13l-2.8,13.18H373L383.72,507h22.69l-5,23.68h.12l5-23.68h22.7Zm-12.23-8.47h5.36l7.12-33.64h-5.37l-4.32,20.45h0Zm-22.83,0h5.38l2.12-10h0l5-23.68h-5.38Z"/><path class="cls-4" d="M135.1,553.32H113.72L118,533.25H104.61l-4.27,20.07H79l13.57-64.13h21.38l-7.63,36.06h13.39l7.62-36.06h21.38Z"/><path class="cls-4" d="M176.54,533.25H145.77l1.67-8h30.77Z"/><path class="cls-4" d="M240.08,553.32H218.7l-1.39-24.63-11.9,24.63H184l-3.81-64.13H201.6l2.79,48.15,12-24.73L215,489.19h21.38l2.79,48.15,23.24-48.15H271Z"/><path class="cls-4" d="M295.31,553.32h-14l2.8-13.18H275.3l-2.81,13.18h-14L266,517.81a8.32,8.32,0,0,1,2.87-4.79,7.83,7.83,0,0,1,5.12-1.8h23.68a5.3,5.3,0,0,1,4.42,1.8,5.45,5.45,0,0,1,.77,4.79Zm-15-36.86-3.91,18.43h8.79l3.91-18.43Z"/><path class="cls-4" d="M344.19,516.46h-10.5l-7.81,36.86h-14l7.81-36.86h-10.5l1.1-5.24h35Z"/><path class="cls-4" d="M349,553.32a5.3,5.3,0,0,1-4.42-1.8,5.45,5.45,0,0,1-.77-4.79l6.11-28.92a8.31,8.31,0,0,1,2.86-4.79,7.87,7.87,0,0,1,5.13-1.8h23.25l-1.1,5.24h-15.8l-7.08,31.61h16.17l-1.1,5.25Z"/><path class="cls-4" d="M415.1,553.32h-14l2.81-13.18h-8.79l-2.8,13.18h-14l8.91-42.1h14l-5,23.67H405l5-23.67h14Z"/></svg>